<svg width="11" height="29" viewBox="0 0 11 29" fill="none" xmlns="http://www.w3.org/2000/svg">
<g clip-path="url(#clip0_4_829)">
<path d="M1.27417 22C1.06084 22 0.878481 21.926 0.727089 21.7781C0.575696 21.6301 0.5 21.4495 0.5 21.2362C0.5 21.0228 0.579137 20.837 0.737411 20.6788L4.90759 16.5189L0.737411 12.359C0.579137 12.2008 0.5 12.015 0.5 11.8016C0.5 11.5883 0.575696 11.4077 0.727089 11.2597C0.878481 11.1118 1.06084 11.0378 1.27417 11.0378C1.47373 11.0378 1.65265 11.1101 1.81092 11.2546L6.51785 15.9409C6.68301 16.0922 6.76559 16.2849 6.76559 16.5189C6.76559 16.7391 6.68301 16.9318 6.51785 17.0969L1.81092 21.7832C1.66641 21.9277 1.48749 22 1.27417 22Z" fill="#2997FF"/>
</g>
<defs>
<clipPath id="clip0_4_829">
<rect width="9.51" height="29" fill="white" transform="matrix(1 0 0 -1 0.5 29)"/>
</clipPath>
</defs>
</svg>

